# xmcd CD database file
#
# Track frame offsets:
#	150
#	14350
#	28672
#	40837
#	54955
#	67492
#	79752
#	93632
#	107980
#	122222
#	137242
#	149070
#	162622
#	177092
#	191030
#	204700
#	218047
#	232225
#	245262
#	258140
#	271642
#	284600
#	298477
#	310877
#
# Disc length: 4311 seconds
#
# Revision: 0
# Processed by: cddbd v1.5.2PL0 Copyright (c) Steve Scherf et al.
# Submitted via: CDex 1.99.1
#
DISCID=8310d518
DTITLE=Various Artist - Boogie Woogie and Barrelhouse Piano Vol. 2 (1928 - 1930)
DYEAR=1900
DGENRE=Blues
TTITLE0=Bob Call - Keep A-Knockin' An You Can't Get In
TTITLE1=Bob Call - Evil Woman Blues
TTITLE2=Bob Call - 31 Blues
TTITLE3=Raymond Barrow - Walking Blues
TTITLE4=Blind Leroy Garnett - My Lovin' Blues
TTITLE5=Blind Leroy Garnett - Weary-Hearted Blues
TTITLE6=Blind Leroy Garnett - Chain 'Em Down
TTITLE7=Blind Leroy Garnett - Louisiana Glide
TTITLE8=Blind Leroy Garnett - Forty Four Blues
TTITLE9=Blind Leroy Garnett - Frisco Bound
TTITLE10=Blind Leroy Garnett - What Do You Think This Is?
TTITLE11=Blind Leroy Garnett - Blue And Disgusted
TTITLE12=James 'Boodle-It' Williams - Corinne Corinna Blues
TTITLE13=James 'Boodle-It' Williams - Gotta Shave 'Em Dry
TTITLE14=Romeo Nelson - Head Rag Hop
TTITLE15=Romeo Nelson - Gettin' Dirty Just Shakin' That Thing
TTITLE16=Romeo Nelson - Dyin' Rider Blues
TTITLE17=Romeo Nelson - 1129 Blues (The Midnight Special)
TTITLE18=Rudy Foster - Black Gal Makes Thunder
TTITLE19=Rudy Foster - Corn Trimmer Blues
TTITLE20=Piano Kid Edwards - Gamblin' Man's Prayer Blues
TTITLE21=Piano Kid Edwards - Hard Luch Gamblin' Man
TTITLE22=Piano Kid Edwards - Piano Kid Special
TTITLE23=Piano Kid Edwards - Give Us Another Jug
EXTD=
EXTT0=
EXTT1=
EXTT2=
EXTT3=
EXTT4=
EXTT5=
EXTT6=
EXTT7=
EXTT8=
EXTT9=
EXTT10=
EXTT11=
EXTT12=
EXTT13=
EXTT14=
EXTT15=
EXTT16=
EXTT17=
EXTT18=
EXTT19=
EXTT20=
EXTT21=
EXTT22=
EXTT23=
PLAYORDER=
